<?xml version="1.0" encoding="UTF-8"?>
<!DOCTYPE svg PUBLIC "-//W3C//DTD SVG 1.1//EN" "http://www.w3.org/Graphics/SVG/1.1/DTD/svg11.dtd">
<svg xmlns="http://www.w3.org/2000/svg" version="1.1" width="191px" height="162px" style="shape-rendering:geometricPrecision; text-rendering:geometricPrecision; image-rendering:optimizeQuality; fill-rule:evenodd; clip-rule:evenodd" xmlns:xlink="http://www.w3.org/1999/xlink">
<g><path style="opacity:1" fill="#fefefe" d="M -0.5,-0.5 C 63.1667,-0.5 126.833,-0.5 190.5,-0.5C 190.5,53.5 190.5,107.5 190.5,161.5C 126.833,161.5 63.1667,161.5 -0.5,161.5C -0.5,107.5 -0.5,53.5 -0.5,-0.5 Z"/></g>
<g><path style="opacity:1" fill="#109b08" d="M 141.5,36.5 C 128.001,20.1632 110.668,13.9966 89.5,18C 81.7703,19.6959 75.1036,23.1959 69.5,28.5C 66.4502,30.6916 63.1168,32.3583 59.5,33.5C 58.1253,24.3942 61.1253,16.8942 68.5,11C 101.473,-5.06499 125.807,3.43501 141.5,36.5 Z"/></g>
<g><path style="opacity:1" fill="#8ac44c" d="M 141.5,36.5 C 143.225,39.6245 144.725,42.9579 146,46.5C 146.72,48.1124 146.554,49.6124 145.5,51C 142.509,50.6948 139.509,50.0281 136.5,49C 131.833,48.3333 127.167,48.3333 122.5,49C 113.886,51.5383 105.219,53.8717 96.5,56C 87.2881,57.6808 78.6214,56.3475 70.5,52C 67.2758,49.0394 64.9424,45.5394 63.5,41.5C 71.4761,35.3461 80.4761,31.6794 90.5,30.5C 95.2137,30.8266 99.8804,30.4933 104.5,29.5C 101.725,26.9555 98.3914,25.4555 94.5,25C 85.825,23.8077 77.4916,24.9743 69.5,28.5C 75.1036,23.1959 81.7703,19.6959 89.5,18C 110.668,13.9966 128.001,20.1632 141.5,36.5 Z"/></g>
<g><path style="opacity:1" fill="#acd47f" d="M 90.5,30.5 C 93.3054,29.6805 96.3054,29.1805 99.5,29C 92.4436,28.2119 85.4436,28.5452 78.5,30C 67.0433,34.0741 56.7099,39.9075 47.5,47.5C 46.1522,46.4732 45.6522,45.1398 46,43.5C 50.683,40.3034 55.183,36.97 59.5,33.5C 63.1168,32.3583 66.4502,30.6916 69.5,28.5C 77.4916,24.9743 85.825,23.8077 94.5,25C 98.3914,25.4555 101.725,26.9555 104.5,29.5C 99.8804,30.4933 95.2137,30.8266 90.5,30.5 Z"/></g>
<g><path style="opacity:1" fill="#c3dfa4" d="M 90.5,30.5 C 80.4761,31.6794 71.4761,35.3461 63.5,41.5C 59.5309,44.8253 55.5309,48.1586 51.5,51.5C 49.812,50.4787 48.4787,49.1454 47.5,47.5C 56.7099,39.9075 67.0433,34.0741 78.5,30C 85.4436,28.5452 92.4436,28.2119 99.5,29C 96.3054,29.1805 93.3054,29.6805 90.5,30.5 Z"/></g>
<g><path style="opacity:1" fill="#0f9b08" d="M 42.5,65.5 C 42.6567,66.8734 42.49,68.2068 42,69.5C 24.5089,95.1859 27.0089,118.686 49.5,140C 53.0561,141.608 56.3894,143.441 59.5,145.5C 51.0504,147.09 43.3838,145.256 36.5,140C 15.1456,120.76 11.6456,98.593 26,73.5C 29.4676,68.0659 33.301,62.8992 37.5,58C 38.9437,57.2195 40.277,57.3861 41.5,58.5C 42.3742,60.7466 42.7076,63.0799 42.5,65.5 Z"/></g>
<g><path style="opacity:1" fill="#add57f" d="M 150.5,61.5 C 155.505,75.6633 155.672,89.9967 151,104.5C 148.982,109.215 146.482,113.549 143.5,117.5C 142.171,119.377 140.838,119.544 139.5,118C 148.513,106.154 151.846,92.9869 149.5,78.5C 149.5,78.1667 149.5,77.8333 149.5,77.5C 148.833,72.1667 148.167,66.8333 147.5,61.5C 148.5,61.5 149.5,61.5 150.5,61.5 Z"/></g>
<g><path style="opacity:1" fill="#c3dfa5" d="M 150.5,61.5 C 152.817,60.0584 154.984,60.3918 157,62.5C 157.513,68.4478 158.68,74.1145 160.5,79.5C 159.275,80.1522 158.608,81.3189 158.5,83C 157.907,93.2126 155.074,102.713 150,111.5C 147.963,113.706 145.797,115.706 143.5,117.5C 146.482,113.549 148.982,109.215 151,104.5C 155.672,89.9967 155.505,75.6633 150.5,61.5 Z"/></g>
<g><path style="opacity:1" fill="#8ac44c" d="M 42.5,65.5 C 43.6702,68.8514 45.1702,72.1847 47,75.5C 56.0307,84.1964 64.6973,93.1964 73,102.5C 80.1636,112.796 80.3302,123.129 73.5,133.5C 61.009,128.674 51.6757,120.341 45.5,108.5C 45.0512,106.467 44.0512,104.8 42.5,103.5C 41.6914,111.587 43.8581,118.92 49,125.5C 54.7757,131.122 60.9424,136.122 67.5,140.5C 65.5106,143.166 62.844,144.833 59.5,145.5C 56.3894,143.441 53.0561,141.608 49.5,140C 27.0089,118.686 24.5089,95.1859 42,69.5C 42.49,68.2068 42.6567,66.8734 42.5,65.5 Z"/></g>
<g><path style="opacity:1" fill="#0d9a06" d="M 149.5,77.5 C 149.5,77.8333 149.5,78.1667 149.5,78.5C 147.322,82.1949 144.489,85.5282 141,88.5C 133.902,100.876 129.569,114.209 128,128.5C 125.95,136.102 121.783,142.269 115.5,147C 114.207,147.49 112.873,147.657 111.5,147.5C 108.09,147.543 104.757,147.043 101.5,146C 100.941,145.275 100.608,144.442 100.5,143.5C 104.808,139.345 108.642,134.679 112,129.5C 114.312,121.584 116.312,113.584 118,105.5C 120.625,94.0475 126.791,85.2142 136.5,79C 140.73,77.7101 145.064,77.2101 149.5,77.5 Z"/></g>
<g><path style="opacity:1" fill="#8bc44d" d="M 149.5,78.5 C 151.846,92.9869 148.513,106.154 139.5,118C 140.838,119.544 142.171,119.377 143.5,117.5C 145.797,115.706 147.963,113.706 150,111.5C 155.074,102.713 157.907,93.2126 158.5,83C 158.608,81.3189 159.275,80.1522 160.5,79.5C 162.861,80.4348 165.028,81.7682 167,83.5C 173.121,91.1277 175.121,99.7944 173,109.5C 167.788,131.715 153.954,144.548 131.5,148C 124.654,148.821 117.987,148.654 111.5,147.5C 112.873,147.657 114.207,147.49 115.5,147C 121.783,142.269 125.95,136.102 128,128.5C 129.569,114.209 133.902,100.876 141,88.5C 144.489,85.5282 147.322,82.1949 149.5,78.5 Z"/></g>
<g><path style="opacity:1" fill="#add580" d="M 45.5,108.5 C 47.0946,115.468 50.7613,121.635 56.5,127C 65.4619,134.316 75.4619,139.816 86.5,143.5C 86.2402,145.595 85.0736,146.928 83,147.5C 77.8711,145.018 72.7044,142.684 67.5,140.5C 60.9424,136.122 54.7757,131.122 49,125.5C 43.8581,118.92 41.6914,111.587 42.5,103.5C 44.0512,104.8 45.0512,106.467 45.5,108.5 Z"/></g>
<g><path style="opacity:1" fill="#c1dea2" d="M 45.5,108.5 C 51.6757,120.341 61.009,128.674 73.5,133.5C 77.6286,135.488 81.9619,136.988 86.5,138C 87.807,139.943 87.807,141.777 86.5,143.5C 75.4619,139.816 65.4619,134.316 56.5,127C 50.7613,121.635 47.0946,115.468 45.5,108.5 Z"/></g>
</svg>
